<?xml version="1.0" encoding="UTF-8" standalone="no" ?>
<!DOCTYPE svg PUBLIC "-//W3C//DTD SVG 1.1//EN" "http://www.w3.org/Graphics/SVG/1.1/DTD/svg11.dtd">
<svg xmlns="http://www.w3.org/2000/svg" xmlns:xlink="http://www.w3.org/1999/xlink" version="1.1" width="500" height="500" viewBox="0 0 500 500" xml:space="preserve">
<desc>Created with Fabric.js 4.6.0</desc>
<defs>
</defs>
<g transform="matrix(1.35 0 0 4.21 80.08 250)" id="DNcjkKJJxnNCs1-hQv4wg"  >
<linearGradient id="SVGID_673" gradientUnits="userSpaceOnUse" gradientTransform="matrix(1 0 0 1 -59.25 -59.25)"  x1="107.19029769416679" y1="-27.558675064332043" x2="56.4372528305539" y2="97.54419321135516">
<stop offset="0%" style="stop-color:#83B2DC;stop-opacity: 1"/>
<stop offset="43.31233527842067%" style="stop-color:#4980B7;stop-opacity: 1"/>
<stop offset="70.47370952418794%" style="stop-color:#3F6CC1;stop-opacity: 1"/>
<stop offset="100%" style="stop-color:#1B55A0;stop-opacity: 1"/>
</linearGradient>
<path style="stroke: rgb(180,1,33); stroke-width: 0; stroke-dasharray: none; stroke-linecap: butt; stroke-dashoffset: 0; stroke-linejoin: miter; stroke-miterlimit: 4; fill: url(#SVGID_673); fill-rule: nonzero; opacity: 1;" vector-effect="non-scaling-stroke"  transform=" translate(0, 0)" d="M -59.2474 -52.56256 C -59.2474 -56.2545 -49.87844 -59.2474 -38.32125 -59.2474 L 38.321239999999996 -59.2474 L 38.321239999999996 -59.2474 C 49.87844 -59.2474 59.247389999999996 -56.2545 59.247389999999996 -52.56256 L 59.247389999999996 52.56255000000001 L 59.247389999999996 52.56255000000001 C 59.247389999999996 56.25449000000001 49.878429999999994 59.24739000000001 38.321239999999996 59.24739000000001 L -38.32125 59.24739000000001 L -38.32125 59.24739000000001 C -49.87845 59.24739000000001 -59.2474 56.25449000000001 -59.2474 52.56255000000001 z" stroke-linecap="round" />
</g>
<g transform="matrix(1.35 0 0 4.21 419.71 249.73)" id="WG9Q5eweWsW_DOHzOcCkP"  >
<linearGradient id="SVGID_675" gradientUnits="userSpaceOnUse" gradientTransform="matrix(1 0 0 1 -59.25 -59.25)"  x1="107.19029769416679" y1="-27.558675064332043" x2="56.4372528305539" y2="97.54419321135516">
<stop offset="0%" style="stop-color:#83B2DC;stop-opacity: 1"/>
<stop offset="43.31233527842067%" style="stop-color:#4980B7;stop-opacity: 1"/>
<stop offset="70.47370952418794%" style="stop-color:#3F6CC1;stop-opacity: 1"/>
<stop offset="100%" style="stop-color:#1B55A0;stop-opacity: 1"/>
</linearGradient>
<path style="stroke: rgb(180,1,33); stroke-width: 0; stroke-dasharray: none; stroke-linecap: butt; stroke-dashoffset: 0; stroke-linejoin: miter; stroke-miterlimit: 4; fill: url(#SVGID_675); fill-rule: nonzero; opacity: 1;" vector-effect="non-scaling-stroke"  transform=" translate(0, 0)" d="M -59.2474 -52.56256 C -59.2474 -56.2545 -49.87844 -59.2474 -38.32125 -59.2474 L 38.321239999999996 -59.2474 L 38.321239999999996 -59.2474 C 49.87844 -59.2474 59.247389999999996 -56.2545 59.247389999999996 -52.56256 L 59.247389999999996 52.56255000000001 L 59.247389999999996 52.56255000000001 C 59.247389999999996 56.25449000000001 49.878429999999994 59.24739000000001 38.321239999999996 59.24739000000001 L -38.32125 59.24739000000001 L -38.32125 59.24739000000001 C -49.87845 59.24739000000001 -59.2474 56.25449000000001 -59.2474 52.56255000000001 z" stroke-linecap="round" />
</g>
<g transform="matrix(1.35 0 0 2.11 250 374.84)" id="2dfUHJoPlDORzzxykNaer"  >
<linearGradient id="SVGID_731" gradientUnits="userSpaceOnUse" gradientTransform="matrix(1 0 0 1 -59.25 -59.25)"  x1="123.1748157713671" y1="-31.16307943241906" x2="66.78017629227176" y2="113.91419638308372">
<stop offset="0%" style="stop-color:#E37C7C;stop-opacity: 1"/>
<stop offset="42.90605173211394%" style="stop-color:#C54343;stop-opacity: 1"/>
<stop offset="63.12979023152714%" style="stop-color:#AC2E2E;stop-opacity: 1"/>
<stop offset="100%" style="stop-color:#770A14;stop-opacity: 1"/>
</linearGradient>
<path style="stroke: rgb(180,1,33); stroke-width: 0; stroke-dasharray: none; stroke-linecap: butt; stroke-dashoffset: 0; stroke-linejoin: miter; stroke-miterlimit: 4; fill: url(#SVGID_731); fill-rule: nonzero; opacity: 1;" vector-effect="non-scaling-stroke"  transform=" translate(0, 0)" d="M -59.2474 -45.87772 C -59.2474 -53.26159 -49.87844 -59.2474 -38.32125 -59.2474 L 38.321239999999996 -59.2474 L 38.321239999999996 -59.2474 C 49.87844 -59.2474 59.247389999999996 -53.26159 59.247389999999996 -45.87772 L 59.247389999999996 45.87771000000001 L 59.247389999999996 45.87771000000001 C 59.247389999999996 53.26158000000001 49.878429999999994 59.24739000000001 38.321239999999996 59.24739000000001 L -38.32125 59.24739000000001 L -38.32125 59.24739000000001 C -49.87845 59.24739000000001 -59.2474 53.26158000000001 -59.2474 45.87771000000001 z" stroke-linecap="round" />
</g>
</svg>